<mxfile host="app.diagrams.net" modified="2021-01-11T12:44:52.336Z" agent="5.0 (Windows NT 10.0; Win64; x64) AppleWebKit/537.36 (KHTML, like Gecko) Chrome/87.0.4280.88 Safari/537.36" etag="GjMBVk5lv9tlCnCE6Pra" version="14.1.9" type="github">
  <diagram id="10PLELdywGt7x-_tuSmS" name="Page-1">
    <mxGraphModel dx="734" dy="601" grid="1" gridSize="10" guides="1" tooltips="1" connect="1" arrows="1" fold="1" page="1" pageScale="1" pageWidth="827" pageHeight="1169" math="0" shadow="0">
      <root>
        <mxCell id="0cewEcc_fVIQIEOAbT-5-0" />
        <mxCell id="0cewEcc_fVIQIEOAbT-5-1" parent="0cewEcc_fVIQIEOAbT-5-0" />
        <mxCell id="5vSgxh7J4FDEk3d3rKd2-0" value="테스트" style="rounded=0;whiteSpace=wrap;html=1;" parent="0cewEcc_fVIQIEOAbT-5-1" vertex="1">
          <mxGeometry x="350" y="350" width="120" height="60" as="geometry" />
        </mxCell>
        <mxCell id="0_j-moF8oHKsRfJM3r9B-0" value="" style="rounded=0;whiteSpace=wrap;html=1;" vertex="1" parent="0cewEcc_fVIQIEOAbT-5-1">
          <mxGeometry x="354" y="240" width="120" height="60" as="geometry" />
        </mxCell>
      </root>
    </mxGraphModel>
  </diagram>
</mxfile>
